#N canvas 655 84 570 291 10;
#X obj 347 11 loadbang;
#X obj 237 51 netsend;
#X floatatom 237 91 5 0 0 0 - - -;
#X floatatom 104 35 5 0 0 0 - - -;
#X obj 347 51 del 0;
#X msg 17 161 send \$1;
#X obj 17 11 netreceive 8206;
#X obj 17 121 realtime;
#X obj 17 81 t b b a;
#X obj 17 188 list append;
#X obj 17 210 list trim;
#N canvas 2 48 450 300 commands 1;
#X obj 12 8 inlet;
#X obj 12 270 outlet;
#N canvas 106 123 450 300 open 1;
#X obj 14 12 inlet;
#X obj 14 34 route open;
#X obj 71 57 outlet;
#X msg 14 109 \; pd open \$1 \$2;
#X obj 14 83 list trim;
#X obj 14 56 list;
#X connect 0 0 1 0;
#X connect 1 0 5 0;
#X connect 1 1 2 0;
#X connect 4 0 3 0;
#X connect 5 0 4 0;
#X restore 12 60 pd open;
#X obj 12 34 t a a;
#X obj 69 60 spigot 0;
#X obj 114 8 r PHONON-DEBUG;
#N canvas 2 48 450 300 debug 0;
#X obj 13 7 inlet;
#X obj 13 29 route debug;
#X obj 76 51 outlet;
#X obj 13 51 tgl 15 0 empty empty empty 17 7 0 10 -262144 -1 -1 1 1
;
#X msg 13 71 \; PHONON-DEBUG \$1 \;;
#X connect 0 0 1 0;
#X connect 1 0 3 0;
#X connect 1 1 2 0;
#X connect 3 0 4 0;
#X restore 12 82 pd debug;
#X obj 114 30 t a a;
#X obj 141 60 print phonon debug mode;
#X obj 69 82 print command;
#X connect 0 0 3 0;
#X connect 2 0 6 0;
#X connect 3 0 2 0;
#X connect 3 1 4 0;
#X connect 4 0 9 0;
#X connect 5 0 7 0;
#X connect 6 0 1 0;
#X connect 7 0 4 1;
#X connect 7 1 8 0;
#X restore 17 35 pd commands;
#X obj 17 57 route ping;
#X obj 74 81 print invalid command;
#X obj 17 231 s PHONON-SEND;
#X obj 237 11 r PHONON-SEND;
#X msg 347 91 \; pd dsp 1 \, dsp 0 \; PHONON-SEND connect localhost
8205;
#X connect 0 0 4 0;
#X connect 1 0 2 0;
#X connect 4 0 16 0;
#X connect 5 0 9 0;
#X connect 6 0 11 0;
#X connect 6 1 3 0;
#X connect 7 0 5 0;
#X connect 8 0 7 0;
#X connect 8 1 7 1;
#X connect 8 2 9 1;
#X connect 9 0 10 0;
#X connect 10 0 14 0;
#X connect 11 0 12 0;
#X connect 12 0 8 0;
#X connect 12 1 13 0;
#X connect 15 0 1 0;
