#N canvas 649 54 570 291 10;
#X obj 347 11 loadbang;
#X obj 237 51 netsend;
#X floatatom 237 91 5 0 0 0 - - -;
#X floatatom 104 35 5 0 0 0 - - -;
#X obj 347 51 del 0;
#X obj 17 11 netreceive 8206;
#N canvas 707 410 450 308 commands 1;
#X obj 12 8 inlet;
#X obj 12 270 outlet;
#N canvas 104 113 450 300 open 0;
#X obj 14 12 inlet;
#X obj 14 34 route open;
#X obj 71 57 outlet;
#X msg 14 78 \; pd open \$1 \$2;
#X obj 14 56 list;
#X connect 0 0 1 0;
#X connect 1 0 4 0;
#X connect 1 1 2 0;
#X connect 4 0 3 0;
#X restore 12 52 pd open;
#N canvas 2 48 450 300 debug 0;
#X obj 13 7 inlet;
#X obj 13 104 route debug;
#X obj 76 126 outlet;
#X obj 13 126 tgl 15 0 empty empty empty 17 7 0 10 -262144 -1 -1 0
1;
#X msg 13 146 \; PHONON-DEBUG \$1 \;;
#X obj 13 30 t a a;
#X obj 70 56 spigot 0;
#X obj 115 8 r PHONON-DEBUG;
#X obj 115 30 t a a;
#X obj 142 56 print phonon debug mode;
#X obj 70 78 print command;
#X connect 0 0 5 0;
#X connect 1 0 3 0;
#X connect 1 1 2 0;
#X connect 3 0 4 0;
#X connect 5 0 1 0;
#X connect 5 1 6 0;
#X connect 6 0 10 0;
#X connect 7 0 8 0;
#X connect 8 0 6 1;
#X connect 8 1 9 0;
#X restore 12 74 pd debug;
#N canvas 2 48 450 300 quit 0;
#X obj 13 7 inlet;
#X obj 76 51 outlet;
#X msg 13 71 \; pd quit \;;
#X obj 13 29 route quit;
#X connect 0 0 3 0;
#X connect 3 0 2 0;
#X connect 3 1 1 0;
#X restore 12 97 pd quit;
#N canvas 2 48 450 300 ping 0;
#X msg 17 161 send \$1;
#X obj 17 121 realtime;
#X obj 17 81 t b b a;
#X obj 17 188 list append;
#X obj 17 210 list trim;
#X obj 17 57 route ping;
#X obj 17 231 s PHONON-SEND;
#X obj 17 25 inlet;
#X obj 74 81 outlet;
#X connect 0 0 3 0;
#X connect 1 0 0 0;
#X connect 2 0 1 0;
#X connect 2 1 1 1;
#X connect 2 2 3 1;
#X connect 3 0 4 0;
#X connect 4 0 6 0;
#X connect 5 0 2 0;
#X connect 5 1 8 0;
#X connect 7 0 5 0;
#X restore 12 30 pd ping;
#X connect 0 0 5 0;
#X connect 2 0 3 0;
#X connect 3 0 4 0;
#X connect 4 0 1 0;
#X connect 5 0 2 0;
#X restore 17 35 pd commands;
#X obj 237 11 r PHONON-SEND;
#X msg 347 91 \; pd dsp 1 \, dsp 0 \; PHONON-SEND connect localhost
8205;
#X obj 17 191 s;
#X obj 17 116 t b a;
#X obj 17 138 list;
#X text 32 70 send everything else wherever;
#X obj 17 94 list split 1;
#X obj 17 160 list trim;
#X obj 80 138 symbol;
#X connect 0 0 4 0;
#X connect 1 0 2 0;
#X connect 4 0 8 0;
#X connect 5 0 6 0;
#X connect 5 1 3 0;
#X connect 6 0 13 0;
#X connect 7 0 1 0;
#X connect 10 0 11 0;
#X connect 10 1 15 0;
#X connect 11 0 14 0;
#X connect 13 0 10 0;
#X connect 13 1 11 1;
#X connect 14 0 9 0;
#X connect 15 0 9 1;
